<svg width="171" height="53" viewBox="0 0 171 53" fill="none" xmlns="http://www.w3.org/2000/svg">
<g clip-path="url(#clip0_302_479)">
<path d="M70.7834 28.8277H66.6537C67.115 27.8083 69.5177 22.8696 69.8824 21.9068C69.8824 22.8696 70.6761 27.8309 70.7834 28.8277ZM75.3957 35.658L72.3495 18.6106H68.5952L59.5636 35.658H63.2535L65.3451 31.5349H71.0945L71.7595 35.658H75.385H75.3957Z" fill="#424142"/>
<path d="M90.1123 21.4764H83.6014L82.9686 25.3163H88.3854L87.9027 28.1821H82.4859L81.7565 32.6903H88.9217L88.439 35.6581H77.777L80.6195 18.6786H91.067L90.1123 21.4764Z" fill="#424142"/>
<path d="M109.945 22.2466C108.572 21.4424 107.081 21.0233 105.741 21.0233C103.81 21.0233 102.566 21.8615 102.619 23.1075C102.651 23.9117 103.166 24.4441 104.529 24.8972L106.577 25.5655C109.012 26.3697 110.385 27.7063 110.46 29.6546C110.61 33.4945 107.049 36.0432 102.287 36.0432C100.26 36.0432 98.0606 35.5221 96.3873 34.5253L97.8783 31.8634C99.4443 32.7243 101.021 33.2114 102.823 33.2114C105.033 33.2114 106.492 32.2146 106.438 30.81C106.395 29.8132 105.816 29.1789 104.357 28.6692L102.426 27.9895C99.9055 27.1287 98.79 25.7807 98.7256 23.991C98.5969 20.6608 101.708 18.1462 106.03 18.1462C108.058 18.1462 110.374 18.7578 111.683 19.698L109.935 22.2353L109.945 22.2466Z" fill="#424142"/>
<path d="M131.173 35.658H127.826L128.674 26.1432C128.781 24.9878 129.006 23.5153 129.081 22.8356C128.856 23.4133 128.223 24.8972 127.676 26.0412L123.107 35.658H120.071L118.891 26.2112C118.752 25.1577 118.655 23.4133 118.655 22.6544C118.527 23.3001 118.151 24.9652 117.861 26.2112L115.577 35.658H112.134L116.757 18.6672H121.165L122.227 27.3892C122.367 28.5785 122.452 30.0511 122.452 30.6967C122.645 30.0851 123.3 28.4766 123.825 27.3665L127.837 18.6672H132.406L131.194 35.658H131.173Z" fill="#424142"/>
<path d="M137.898 35.658H134.327L137.201 18.6672H140.762L137.898 35.658Z" fill="#424142"/>
<path d="M155.49 21.5444H150.985L148.571 35.6581H145.096L147.477 21.5444H142.918L143.401 18.6786H156.53L155.49 21.5444Z" fill="#424142"/>
<path d="M167.942 35.6354H164.445L165.743 28.1028H160.026L158.76 35.6354H155.296L158.16 18.6672H161.603L160.477 25.2483H166.194L167.309 18.6672H170.806L167.942 35.6354Z" fill="#424142"/>
<path d="M65.8064 2.22013C65.2486 2.05022 59.9283 0.475737 52.5056 0.0792847C51.7333 1.77837 50.9181 3.51143 50.0708 5.23316C55.2516 3.83992 60.5719 2.8771 65.8064 2.2088" fill="#B9E1D6"/>
<path d="M65.86 2.24277C65.86 2.24277 65.8385 2.24277 65.8064 2.23145C60.5719 2.88842 55.2516 3.86256 50.0708 5.25581C47.4321 10.6362 44.4179 16.0733 41.0284 21.2385C48.1722 19.5507 55.4983 18.5993 62.449 18.1235C63.9185 13.4567 65.077 8.20088 65.8493 2.2541L65.86 2.24277Z" fill="#9DCC56"/>
<path d="M28.3176 36.8814C27.9959 39.1129 27.5775 41.3103 27.0841 43.4625C34.8822 38.909 44.0318 36.7002 53.4817 35.9865C57.0536 31.3311 60.1428 25.4636 62.4597 18.1009C55.509 18.5766 48.1829 19.5281 41.0391 21.2159C37.2742 26.9361 33.0373 32.3165 28.3176 36.8701" fill="#07AC7F"/>
<path d="M19.1466 49.4206C21.5708 47.0985 24.2309 45.1276 27.0734 43.4625C27.5775 41.3103 27.9851 39.1015 28.3069 36.8814C23.3299 41.6955 17.8058 45.6034 11.7239 48.0387C11.6381 49.5792 11.5201 51.1537 11.3378 52.7622C12.7537 52.8868 14.2661 52.966 15.8429 52.9887C16.8833 51.72 17.9881 50.5307 19.1466 49.4206Z" fill="#1F4426"/>
<path d="M24.3167 52.4903C34.1528 51.165 45.1259 46.8833 53.471 35.9865C44.0211 36.7001 34.8607 38.9089 27.0734 43.4625C26.3547 46.5774 25.443 49.5905 24.3167 52.4903Z" fill="#037853"/>
<path d="M19.1466 49.4206C17.9881 50.5193 16.8941 51.7087 15.8429 52.9886C18.4923 53.0226 21.3562 52.8867 24.3167 52.4902C25.443 49.6018 26.3547 46.5774 27.0734 43.4625C24.2309 45.1276 21.5708 47.0985 19.1466 49.4206Z" fill="#223620"/>
<path d="M50.0815 5.24449C50.9289 3.52276 51.7441 1.78969 52.5164 0.0906132C45.5979 -0.271857 36.8666 0.385121 28.4678 4.17974C28.8218 7.43064 29.0899 10.7608 29.2508 14.125C35.4936 10.1039 42.6481 7.24941 50.0815 5.24449Z" fill="#93D0AC"/>
<path d="M29.3474 24.7953C33.1231 23.3454 37.0489 22.1674 41.0284 21.2272C44.418 16.0733 47.4321 10.6363 50.0708 5.24451C42.6374 7.24942 35.4721 10.1039 29.2401 14.125C29.4117 17.6591 29.4546 21.2385 29.3474 24.7953Z" fill="#8EC640"/>
<path d="M11.4665 35.1936C12.6357 32.2599 14.073 29.564 15.7356 27.0947C19.3182 21.8049 23.9413 17.5345 29.2401 14.125C29.09 10.7609 28.8111 7.43066 28.4571 4.17975C21.3455 7.38535 14.4806 12.8337 9.1496 21.7822C9.19251 21.9295 10.7371 27.174 11.4665 35.1936Z" fill="#07AC7F"/>
<path d="M29.2401 14.125C23.952 17.5458 19.3182 21.8048 15.7356 27.0947C14.073 29.564 12.6357 32.2599 11.4665 35.1936C16.6259 30.7194 22.7507 27.3325 29.3474 24.7952C29.4547 21.2385 29.401 17.6591 29.2401 14.125Z" fill="#009447"/>
<path d="M28.3176 36.8814C33.0373 32.3165 37.2742 26.9474 41.0391 21.2272C37.0597 22.1787 33.1231 23.3454 29.3581 24.7952C29.2401 28.8617 28.9076 32.9282 28.3176 36.8814Z" fill="#93D0AC"/>
<path d="M11.4665 35.1936C11.8098 38.9542 11.9706 43.3152 11.7239 48.0387C17.8058 45.592 23.3299 41.6954 28.3069 36.8814C28.8969 32.9168 29.2294 28.8617 29.3474 24.7952C22.7507 27.3325 16.6259 30.7194 11.4665 35.1936Z" fill="#5DC19D"/>
<path d="M-7.68388e-05 50.7459C-7.68388e-05 50.7459 3.43237 51.8333 8.67757 52.4903C8.62394 51.6747 8.60248 50.8592 8.60248 50.0436C8.60248 49.7491 8.60248 49.4433 8.60248 49.1375C7.93745 49.3413 7.27241 49.5339 6.58592 49.7038C4.45137 50.2362 2.25246 50.576 -0.0108032 50.7346" fill="#1F4E2C"/>
<path d="M8.742 49.1034C8.742 49.1034 8.65619 49.1261 8.61328 49.1374C8.61328 49.4432 8.61328 49.7377 8.61328 50.0436C8.61328 50.8591 8.64546 51.6747 8.68837 52.4903C9.52502 52.5922 10.4153 52.6941 11.3485 52.7734C11.5309 51.165 11.6488 49.5905 11.7347 48.05C10.7478 48.4464 9.761 48.7976 8.742 49.1147" fill="#223620"/>
<path d="M9.16033 21.7709C4.89123 28.9523 1.60896 38.3879 0 50.7345C1.07264 48.2426 2.34908 45.9431 3.78641 43.8023C5.51336 41.2423 7.48702 38.9316 9.65374 36.8361C10.2437 36.2697 10.8444 35.7147 11.4665 35.1823C10.7371 27.1626 9.19251 21.9068 9.1496 21.7709" fill="#1F4E2C"/>
<path d="M0 50.7459C2.26327 50.5873 4.46218 50.2475 6.59673 49.7151C7.27249 49.5452 7.94825 49.3639 8.61329 49.1487C8.66692 46.6341 8.95653 44.1421 9.46067 41.6954C9.55721 41.2084 9.6752 40.71 9.79319 40.2342C10.2651 38.4785 10.8229 36.8021 11.4665 35.1936C10.8444 35.726 10.2437 36.281 9.65374 36.8474C7.47629 38.9429 5.51336 41.2537 3.78641 43.8136C2.34908 45.9431 1.07264 48.2539 0 50.7459Z" fill="#215736"/>
<path d="M11.4665 35.1936C10.8229 36.8021 10.2651 38.4785 9.79318 40.2342C9.67519 40.7213 9.5572 41.2084 9.46067 41.6954C8.95653 44.1421 8.66691 46.6341 8.61328 49.1487C8.65619 49.1487 8.69909 49.1261 8.742 49.1147C9.75028 48.7976 10.7478 48.4464 11.7347 48.05C11.9814 43.3265 11.8205 38.9542 11.4772 35.2049" fill="#1F4426"/>
</g>
<defs>
<clipPath id="clip0_302_479">
<rect width="171" height="53" fill="white"/>
</clipPath>
</defs>
</svg>
